<svg width="512" height="512" viewBox="0 0 512 512" xmlns="http://www.w3.org/2000/svg" role="img" aria-labelledby="title desc">
  <title id="title">Ženski avatar</title>
  <desc id="desc">Minimalistički zeleni avatar žene na bež kružnoj pozadini.</desc>
  <defs>
    <radialGradient id="bg" cx="50%" cy="35%" r="70%">
      <stop offset="0" stop-color="#f7f0e2"/>
      <stop offset="1" stop-color="#e2d7c5"/>
    </radialGradient>
    <linearGradient id="green" x1="0" x2="1" y1="0" y2="1">
      <stop offset="0" stop-color="#6f8068"/>
      <stop offset="1" stop-color="#314b3c"/>
    </linearGradient>
    <linearGradient id="sage" x1="0" x2="1" y1="0" y2="1">
      <stop offset="0" stop-color="#b8c0a2"/>
      <stop offset="1" stop-color="#728060"/>
    </linearGradient>
    <clipPath id="circle"><circle cx="256" cy="256" r="242"/></clipPath>
  </defs>
  <circle cx="256" cy="256" r="242" fill="url(#bg)"/>
  <g clip-path="url(#circle)">
    <path d="M-10 262c88-80 210-88 278 4 70 95 183 44 274 152v120H-10Z" fill="#82916f" opacity=".55"/>
    <path d="M174 343c32 44 130 45 165 0l27 25c48 12 82 54 82 105v59H72v-59c0-51 35-94 84-106Z" fill="url(#sage)"/>
    <path d="M203 300c6 59 25 83 55 83 31 0 52-24 59-84l-23-10h-68Z" fill="#f3eddf"/>
    <path d="M173 192c5-71 43-112 91-112 70 0 104 61 105 140 2 85 30 104 35 140-39-6-67-26-74-58-20 41-52 64-90 72 15-55-2-90-32-118-23-21-38-38-35-64Z" fill="url(#green)"/>
    <path d="M197 207c8-47 31-73 69-70 41 3 50 43 74 73 9 12 20 22 32 31-5 56-37 98-84 115-47 17-92-18-101-75-4-22-1-50 10-74Z" fill="#f5efe2"/>
    <ellipse cx="376" cy="234" rx="14" ry="25" fill="#f3eddf"/>
    <path d="M199 211c24-83 78-110 142-64-38-6-60 9-72 36-11 26-13 59-34 82-17 18-33 35-32 65-31-41-28-79-4-119Z" fill="url(#green)" opacity=".96"/>
    <path d="M162 298c-24 51-3 70-12 107-8 31-28 45-57 51 37-51 31-81 25-106-7-29 5-61 23-89 20-31 27-59 32-91 26 56 18 88-11 128Z" fill="url(#green)" opacity=".9"/>
  </g>
  <circle cx="256" cy="256" r="242" fill="none" stroke="#ffffff" stroke-width="14" opacity=".75"/>
</svg>
